<svg width="490" height="132" viewBox="0 0 490 132" fill="none" xmlns="http://www.w3.org/2000/svg">
<path d="M199.41 102.74C199.41 102.74 215.743 56.2435 220.047 46.67C224.351 37.0965 224.506 37.0965 231.337 37.1323C239.051 37.18 242.759 42.3899 239.969 48.6848C237.37 54.5505 232.923 63.0749 213.645 69.2505L213.216 72.4576L226.688 102.728H250.532C250.532 102.728 247.301 97.6133 243.104 90.1381C237.632 80.3858 236.011 76.2727 232.851 69.1075C244.142 65.805 257.578 61.0839 260.582 48.4106C264.302 32.888 242.246 33.6987 234.771 33.6629C225.376 33.6272 212.369 33.651 199.159 33.6629L197.717 37.9668C203.177 38.9921 202.08 42.08 199.732 48.8517C193.544 66.7469 190.349 74.6393 185.544 86.7522C180.74 98.877 179.404 102.716 179.404 102.716H199.41V102.74Z" fill="white"/>
<path fill-rule="evenodd" clip-rule="evenodd" d="M88.2954 74.389C96.0806 37.7522 128.795 33.9371 141.766 33.7583C168.162 33.4364 181.872 44.0948 177.485 64.7559C169.7 101.381 137.009 105.196 124.002 105.387C97.6066 105.708 83.8961 95.05 88.2954 74.389ZM124.551 99.3301C131.024 99.6043 147.715 96.0873 156.168 67.1165C160.937 50.795 155.465 40.3632 142.327 39.8028C135.865 39.5286 119.174 43.0576 110.697 72.0045C105.952 88.3379 111.412 98.7697 124.551 99.3301Z" fill="white"/>
<path d="M375.714 33.353L374.284 37.5496C377.86 38.5272 379.589 41.0905 377.61 48.1961C374.761 58.3657 356.949 103.217 356.949 103.217C356.949 103.229 413.782 103.205 414.366 103.169C414.33 103.205 418.515 90.7104 418.515 90.7104H383.809C388.543 78.7287 403.898 33.3649 403.898 33.3649L375.714 33.353Z" fill="white"/>
<path fill-rule="evenodd" clip-rule="evenodd" d="M261.083 103.157C261.083 103.157 304.837 43.475 307.794 40.113C314.756 32.1729 330.327 31.8867 331.96 37.3828C333.593 42.867 348.556 103.145 348.556 103.145H328.038L322.136 80.7913L296.682 80.8152L280.206 103.157H261.083ZM310.35 74.3058C313.243 74.3117 316.123 74.3176 320.109 74.3176C320.586 74.3176 320.956 74.0792 320.837 73.6381C317.964 62.7412 316.342 51.1648 316.342 51.1648C311.335 57.6505 300.509 72.7081 300.021 73.5546C299.818 73.8884 300.116 74.2938 300.39 74.2938C304.493 74.2938 307.429 74.2998 310.35 74.3058Z" fill="white"/>
<path d="M35.981 96.6596C23.427 95.9205 20.8399 85.8343 24.2019 70.5025C30.1749 43.165 46.3533 42.0085 52.5409 42.3901C59.7657 42.8312 61.6613 46.0501 63.3185 51.3913H83.7173C79.5564 41.9132 69.4942 32.8523 48.3681 33.4604C41.6917 33.663 5.98491 37.3828 0.321896 70.0733C-1.51411 80.6482 3.85085 104.743 37.8647 103.741C42.9078 103.598 66.454 102.835 74.871 86.3589H53.2681C48.6304 95.539 40.0345 96.9219 35.981 96.6596" fill="white"/>
<path d="M422.366 79.9567C428.839 74.9494 439.092 68.2015 450.55 70.2521C459.217 71.802 463.366 72.2669 469.792 69.9659C463.616 68.1657 460.683 65.1852 457.333 60.5713C463.056 58.628 464.928 58.3299 472.391 53.728C471.115 52.655 466.406 48.7922 457.906 48.7207C445.638 48.6372 438.818 52.8815 429.34 59.0095L422.366 79.9567Z" fill="#FF303E"/>
<path d="M489.929 36.417C486.876 39.4094 481.535 44.4048 469.864 39.7433C458.168 35.0579 448.833 41.007 446.353 42.3065L439.867 61.6085C447.045 57.245 455.068 53.406 463.676 56.6966C472.26 59.9871 476.23 59.5817 483.61 55.564L489.929 36.417Z" fill="#FFCD00"/>
<path d="M431.558 52.4165C441.048 46.3123 447.867 42.0919 460.135 42.1515C470.674 42.223 477.41 41.0547 486.495 28.6199C477.506 33.341 472.01 34.0802 462.376 31.1235C452.755 28.2026 445.638 29.9075 437.71 34.0802L431.558 52.4165Z" fill="#44BE00"/>
</svg>
