<svg width="490" height="132" viewBox="0 0 490 132" fill="none" xmlns="http://www.w3.org/2000/svg">
<rect x="25" y="18" width="439.696" height="95.1507" fill="url(#paint0_linear_0_2953)"/>
<path fill-rule="evenodd" clip-rule="evenodd" d="M40.7245 97.6805L50.1343 34.9172H76.1613C84.8081 34.9172 91.0482 36.171 94.8817 38.6786C98.7151 41.1862 100.633 45.2239 100.634 50.7918C100.634 54.3751 99.9324 57.3888 98.5464 59.8659C97.1603 62.3429 94.9859 64.38 92.0638 65.9924C94.4658 66.9878 96.498 68.707 97.8775 70.9109C99.2566 73.2141 99.9656 75.8564 99.9248 78.5405C99.9248 84.8985 97.819 89.6796 93.638 92.8764C89.457 96.0732 83.211 97.6831 74.8922 97.6831L40.7245 97.6805ZM62.1788 83.1309H72.0057C75.2118 83.1309 77.538 82.6223 78.9842 81.605C80.4364 80.5878 81.1637 78.922 81.1637 76.6484C81.1637 74.7003 80.5127 73.3041 79.2309 72.4648C77.9491 71.6256 75.706 71.1932 72.5169 71.1932H63.926L62.1788 83.1309ZM73.6639 60.0312H65.4367L67.283 49.0548H73.229C76.7971 49.0548 79.1902 49.421 80.3906 50.1458C81.591 50.8706 82.2039 52.1422 82.2039 53.9428C82.2039 56.102 81.5401 57.6431 80.2024 58.6045C78.8647 59.5658 76.6826 60.0312 73.6639 60.0312Z" fill="white"/>
<path d="M102.13 97.6805L111.707 34.9172H160.226L157.92 49.8432H129.016L127.607 58.4697H153.337L151.094 72.4241H125.43L124.105 82.4875H154.898L152.754 97.678L102.13 97.6805Z" fill="white"/>
<path d="M173.598 97.6806L180.508 50.886H162.688L165.333 34.9275H220.139L217.412 50.886H200.409L193.598 97.6806H173.598Z" fill="white"/>
<path d="M215.853 97.6805L225.347 34.9172H269.474L267.048 50.2984H242.646L241.059 60.2168H261.801L259.464 75.1581H238.851L235.576 97.6805H215.853Z" fill="white"/>
<path fill-rule="evenodd" clip-rule="evenodd" d="M275.092 34.9172L265.751 97.6805L285.099 97.6958L288.53 75.097H293.672C297.492 75.1021 300.165 75.643 301.691 76.7196C303.217 77.7962 303.98 79.6748 303.98 82.3553C303.98 83.0343 303.97 83.5862 303.939 83.9677C303.909 84.3491 303.868 84.7357 303.82 85.1121L302.93 91.4319C302.924 91.4866 302.918 91.5408 302.912 91.5946C302.838 92.3061 302.772 92.9368 302.739 93.4665L302.733 93.5607C302.7 94.0877 302.673 94.5221 302.673 94.8703C302.673 95.4196 302.703 95.9232 302.739 96.3835C302.78 96.8239 302.858 97.2603 302.97 97.6881H324.15V96.0707C323.553 95.859 323.04 95.4592 322.69 94.9313C322.348 94.3326 322.183 93.6491 322.214 92.9604C322.214 92.701 322.217 92.4237 322.235 92.1618C322.252 91.9141 322.305 91.5187 322.379 90.9648L322.393 90.8673L323.064 84.5094C323.15 83.7871 323.216 83.0725 323.257 82.4061C323.298 81.7398 323.313 81.1066 323.313 80.5089C323.313 77.6987 322.715 75.4454 321.533 73.7644C320.35 72.0834 318.379 70.6795 315.582 69.6139C319.498 67.9354 322.494 65.583 324.508 62.5795C326.523 59.576 327.54 55.9697 327.54 51.7913C327.54 45.9547 325.666 41.7075 321.917 38.9863C318.177 36.2736 312.255 34.9172 304.15 34.9172H275.092ZM300.005 61.7173H290.432L292.289 49.8559H300.763C303.598 49.8559 305.651 50.2908 306.905 51.1275C308.158 51.9642 308.776 53.368 308.776 55.2704C308.776 57.4829 308.062 59.108 306.643 60.1584C305.223 61.2087 303.008 61.7173 300.005 61.7173Z" fill="white"/>
<path d="M329.18 97.6805L338.768 34.9172H387.277L384.988 49.8432H356.059L354.655 58.4697H380.392L378.144 72.4241H352.486L351.169 82.4875H381.941L379.792 97.678L329.18 97.6805Z" fill="white"/>
<path fill-rule="evenodd" clip-rule="evenodd" d="M395 34.9172L385.677 97.6805L414.626 97.6729C425.782 97.6814 434.316 94.7143 440.226 88.7717C446.136 82.8292 449.091 74.2468 449.091 63.0245C449.122 59.4804 448.653 55.9496 447.698 52.5364C446.753 49.31 445.417 46.5582 443.69 44.2812C441.104 40.8632 438.077 38.448 434.608 37.0357C431.139 35.6234 426.255 34.9172 419.957 34.9172H395ZM412.454 82.0882H407.828L412.454 50.2374H416.961C421.424 50.2374 424.54 51.1758 426.371 53.1112C428.202 55.0465 429.102 58.3807 429.102 63.111C429.126 66.2701 428.637 69.4121 427.652 72.414C426.696 75.3132 425.453 77.4876 423.96 78.8915C422.732 80.0501 421.244 80.897 419.621 81.3609C418.009 81.8339 415.603 82.0882 412.454 82.0882Z" fill="white"/>
<defs>
<linearGradient id="paint0_linear_0_2953" x1="25" y1="113.151" x2="464.696" y2="113.151" gradientUnits="userSpaceOnUse">
<stop stop-color="#EE0C2E"/>
<stop offset="1" stop-color="#0060D4"/>
</linearGradient>
</defs>
</svg>
