<svg width="490" height="132" viewBox="0 0 490 132" fill="none" xmlns="http://www.w3.org/2000/svg">
<path fill-rule="evenodd" clip-rule="evenodd" d="M45.0337 101C46.6337 100.6 47.4337 100.2 47.8337 98.6C47.8337 98.6 48.8337 94.6 49.6337 91.6C50.2337 89.8 48.6337 89.2 48.0337 89.2H26.8337C21.6337 89.2 19.6337 87.6 20.0337 82.8C20.2337 81.6 20.4337 80.4 20.6337 79L38.0337 14H22.0337C22.0337 14 9.83374 61 4.83374 80C1.23374 94.4 9.83374 101.8 20.2337 101.8C26.2337 101.8 41.4337 101.8 45.0337 101ZM156.834 49.8C153.834 49.4 149.034 49 146.434 49C136.234 49 132.234 54.2 129.234 64.8C129.234 64.8 127.434 71.6 127.034 73.6C126.873 74.4048 126.728 75.1124 126.599 75.7408L126.598 75.7503L126.597 75.7508L126.597 75.7511L126.597 75.7515C126.088 78.2393 125.834 79.4833 125.834 80.6C125.234 87.2 127.634 90.2 135.034 90.2C139.434 90.2 144.234 90 146.434 89.6L156.834 49.8ZM181.234 14H166.234L160.234 37.6C156.234 37.2 152.434 37 149.834 37C131.234 37 120.034 44.8 114.834 65.2L112.634 74C111.634 78 111.634 79 111.634 80.2C110.434 93 116.434 102.6 132.034 102.6C139.634 102.6 148.434 101.6 156.034 99.8C158.634 99.2 159.234 98.6 159.834 96.8L181.234 14ZM214.434 58.4C215.034 52.4 212.834 49 205.434 49C202.634 49 197.634 49.4 194.234 49.8L183.434 89.6C185.434 90 190.034 90.2 194.634 90.2C204.434 90.2 208.834 82.2 211.034 73.8L213.234 65C214.034 62.6 214.434 60.4 214.434 58.4ZM228.034 65C228.634 62.6 229.034 60.4 229.234 58.2C230.234 45.6 224.234 37 208.634 37C205.834 37 201.834 37.2 197.634 37.6L203.634 14H188.234C188.234 14 170.234 82.6 166.634 97C166.152 98.6056 167.862 99.1801 168.658 99.4476C168.854 99.5134 168.994 99.5606 169.034 99.6C175.434 101.4 183.634 102.4 191.234 102.4C210.034 102.4 220.834 93 225.834 73.8L228.034 65ZM308.034 59.8C308.634 53.2 305.834 49.6 299.234 49.6C291.834 49.6 285.634 53.8 282.834 64.6C282.834 64.6 281.034 70.6 280.634 72.8C279.897 75.5978 279.703 76.9862 279.572 77.923C279.525 78.2586 279.486 78.5363 279.434 78.8C278.834 85.4 281.834 89.6 288.434 89.6C296.834 89.6 302.034 84.4 304.834 73.8L307.234 64.8C307.549 63.3818 307.74 61.9637 307.905 60.7411C307.949 60.412 307.991 60.097 308.034 59.8ZM323.034 59C324.034 47.2 317.834 37 302.434 37C284.234 37 272.634 46.4 267.634 65C267.634 65 266.234 70 265.434 72.8C264.834 75.2 264.234 77.8 264.034 79.4C263.034 91.8 269.234 102.4 284.434 102.4C302.634 102.4 314.034 93 319.234 73.8L321.634 65C322.434 62.6 322.834 61 323.034 59ZM383.834 37.6C385.834 37.6 385.634 39 384.634 40L354.834 67.8C354.834 67.8 367.034 93.6 369.434 98.8C370.234 100.4 368.834 101.4 367.834 101.4H355.034C353.634 101.4 352.634 100.2 352.234 99.2L340.234 72L333.234 99.2C333.034 100.6 331.634 101.6 330.434 101.6H320.034C318.834 101.6 318.034 100.2 318.434 99.2C325.034 74.2 340.634 14.2 340.634 14.2H356.034L342.634 63.2L367.634 39C368.634 38 369.434 37.6 370.434 37.6H383.834ZM408.234 49.6C414.434 49.6 417.634 53.2 417.034 59.6C416.834 61.2 416.634 62.4 416.234 63.8H391.834C394.034 55.8 399.234 49.6 408.234 49.6ZM430.656 65.1355L430.656 65.1357L430.656 65.1367C430.477 65.8773 430.273 66.7221 430.034 67.8C429.434 70.4 429.034 71.8 429.034 71.8C428.634 73.6 427.634 74.6 426.034 74.6H388.834C388.726 75.0298 388.604 75.4596 388.484 75.8856L388.483 75.8877C388.154 77.0466 387.834 78.1767 387.834 79.2C387.434 85.4 390.034 90 399.034 90C407.234 90 417.034 89.2 422.234 88.4L420.034 97.8C419.634 99.6 419.234 100.4 417.034 100.6C409.434 101.8 404.434 102.4 393.834 102.4C383.834 102.4 372.234 96.8 373.634 79.4C373.634 78.6 374.234 75.4 374.834 72.2C375.634 68.8 376.434 65.8 376.434 65.8C382.034 44.8 393.834 37 411.634 37C426.634 37 432.634 46.8 431.634 60C431.354 62.2413 431.073 63.4034 430.656 65.1355ZM482.434 39.2C476.434 37.6 469.634 37 462.834 37C452.234 37 438.434 40.4 437.034 55.4C436.634 60.8 439.234 65.8 443.234 68.8L456.634 78.2C459.234 80.2 460.034 82 459.834 83.8C459.434 89.4 455.234 90.4 449.634 90.4C446.834 90.4 436.634 90 431.434 89.2C429.434 89 428.634 90.6 428.434 91L426.634 98C426.234 99.2 427.034 100.2 428.034 100.4C434.834 102.2 444.434 102.6 448.234 102.6C461.834 102.6 473.834 96.8 475.234 82.2C475.834 77.2 474.434 72.8 468.034 68.2L455.634 59C453.434 57.6 452.634 56 452.634 54.4C453.034 49.6 458.234 49.2 461.634 49.2C466.234 49.2 474.034 49.6 479.234 50.6C481.234 50.8 481.834 49.2 482.034 48.4L483.634 42C484.034 41.8 484.634 39.6 482.434 39.2ZM271.634 37C272.034 37 273.634 37.4 273.234 39.2C272.932 40.3326 272.544 41.7503 272.179 43.0871L272.178 43.0912C271.576 45.2937 271.034 47.2756 271.034 47.4C270.634 48.6 269.434 49.6 268.234 49.6C264.634 49.6 259.634 49.8 251.634 53.6L239.234 99.4C239.034 100.8 237.834 101.8 236.434 101.8H226.434C224.834 101.8 224.434 100.6 224.834 99C227.234 89.6 240.234 40.2 240.234 40.2C240.434 39 241.634 38 243.234 38H253.234C254.434 38 255.234 39 254.834 40.2L254.234 42.4C261.034 37.4 267.034 37 271.634 37ZM87.8337 49.2C77.8337 49.2 73.6337 56 71.2337 65.2L68.2337 76.8C67.8338 78.6 67.6338 79.9999 67.4338 81.3999L67.4337 81.4C66.8337 88.2 70.0337 90.4 74.4337 90.4C78.6337 90.4 83.6337 88.6 89.2337 85.2L98.6337 50C96.6337 49.4 92.0337 49.2 87.8337 49.2ZM100.434 99.2L115.034 43C115.634 41.2 115.234 40.4 113.634 39.8C107.034 38 98.6337 36.8 91.4337 36.8C72.8337 36.8 61.2337 47.4 56.6337 65C55.9226 66.9555 55.2115 70.1752 54.5004 73.395C54.4115 73.7975 54.3226 74.2 54.2337 74.6C53.4337 77.6 52.8337 80.4 52.8337 81.4C51.6337 95.4 59.0337 102.2 69.4337 102.2C74.8337 102.2 80.6337 100.8 87.2337 96C87.2337 96 87.0337 97.6 86.6337 99.4C86.4337 100.4 86.8337 101.4 88.6337 101.4H97.6337C98.8337 101.4 100.034 100.4 100.434 99.2Z" fill="white"/>
</svg>
