<svg width="490" height="132" viewBox="0 0 490 132" fill="none" xmlns="http://www.w3.org/2000/svg">
<path fill-rule="evenodd" clip-rule="evenodd" d="M267.971 0C240.274 0 216.587 17.1859 206.96 41.4893V3.05867H161V128.346H206.96V89.9147C216.587 114.218 240.274 131.404 267.971 131.404C304.207 131.404 333.582 101.988 333.582 65.7021C333.582 29.416 304.207 0 267.971 0ZM281.338 99.2072H272.495V120.421H263.447V99.2072H254.604V89.5454H281.338V99.2072ZM281.346 61.7023H265.017V65.0574H279.605V73.989H265.017V77.1285H281.346V86.189H254.596V52.6415H281.346V61.7023ZM271.343 49.2848H254.596V15.7376H270.872C277.79 15.7376 282.261 19.4893 282.261 25.2941C282.261 28.1535 281.213 30.5025 279.278 32.0512C281.437 33.6383 282.69 36.2217 282.69 39.2132C282.69 45.3317 278.236 49.2848 271.343 49.2848Z" fill="white"/>
<path fill-rule="evenodd" clip-rule="evenodd" d="M269.8 36.3545H265.016V40.5257H269.8C271.976 40.5257 272.227 39.2611 272.227 38.3106C272.227 36.5456 270.53 36.3545 269.8 36.3545Z" fill="white"/>
<path fill-rule="evenodd" clip-rule="evenodd" d="M271.84 26.1531C271.84 25.58 271.84 24.2398 269.328 24.2398H265.015V28.0677H269.328C271.84 28.0677 271.84 26.6265 271.84 26.1531Z" fill="white"/>
</svg>
